<svg width="20" height="20" viewBox="0 0 20 20" fill="none" xmlns="http://www.w3.org/2000/svg">
<path fill-rule="evenodd" clip-rule="evenodd" d="M9.30813 19.7396C9.30813 19.7396 2.5 13.9966 2.5 8.3456C2.5 6.35327 3.29018 4.44253 4.6967 3.03374C6.10322 1.62495 8.01088 0.833496 10 0.833496C11.9891 0.833496 13.8968 1.62495 15.3033 3.03374C16.7098 4.44253 17.5 6.35327 17.5 8.3456C17.5 13.9966 10.6919 19.7396 10.6919 19.7396C10.3131 20.0889 9.68969 20.0851 9.30813 19.7396ZM10 11.6321C10.4309 11.6321 10.8576 11.5471 11.2557 11.382C11.6538 11.2168 12.0155 10.9747 12.3202 10.6695C12.6249 10.3644 12.8666 10.002 13.0315 9.60331C13.1964 9.20456 13.2812 8.7772 13.2812 8.3456C13.2812 7.914 13.1964 7.48664 13.0315 7.08789C12.8666 6.68915 12.6249 6.32685 12.3202 6.02166C12.0155 5.71648 11.6538 5.47439 11.2557 5.30923C10.8576 5.14406 10.4309 5.05905 10 5.05905C9.12976 5.05905 8.29516 5.40531 7.67981 6.02166C7.06445 6.63801 6.71875 7.47395 6.71875 8.3456C6.71875 9.21725 7.06445 10.0532 7.67981 10.6695C8.29516 11.2859 9.12976 11.6321 10 11.6321Z" fill="#E31E24"/>
</svg>
