<svg width="20" height="20" viewBox="0 0 20 20" fill="none" xmlns="http://www.w3.org/2000/svg">
<g clip-path="url(#clip0_57_5144)">
<path d="M19 10C19 12.3869 18.0518 14.6761 16.364 16.364C14.6761 18.0518 12.3869 19 10 19C7.61305 19 5.32387 18.0518 3.63604 16.364C1.94821 14.6761 1 12.3869 1 10M19 10C19 7.61305 18.0518 5.32387 16.364 3.63604C14.6761 1.94821 12.3869 1 10 1C7.61305 1 5.32387 1.94821 3.63604 3.63604C1.94821 5.32387 1 7.61305 1 10M19 10H1" stroke="#E31E24" stroke-width="1.5" stroke-linecap="round" stroke-linejoin="round"/>
<path d="M13 10C12.8526 13.2912 11.802 16.4431 10 19C8.19798 16.4431 7.14736 13.2912 7 10C7.14736 6.70878 8.19798 3.5569 10 1C11.802 3.5569 12.8526 6.70878 13 10Z" stroke="#E31E24" stroke-width="1.5" stroke-linecap="round" stroke-linejoin="round"/>
</g>
<defs>
<clipPath id="clip0_57_5144">
<rect width="20" height="20" fill="white"/>
</clipPath>
</defs>
</svg>
