<svg width="25" height="25" viewBox="0 0 25 25" fill="none" xmlns="http://www.w3.org/2000/svg">
<path d="M10.1333 3.125H7.8125C7.1909 3.125 6.59476 3.37193 6.15522 3.81147C5.71568 4.25101 5.46875 4.84715 5.46875 5.46875V19.5312C5.46875 20.1529 5.71568 20.749 6.15522 21.1885C6.59476 21.6281 7.1909 21.875 7.8125 21.875H17.1875C17.8091 21.875 18.4052 21.6281 18.8448 21.1885C19.2843 20.749 19.5312 20.1529 19.5312 19.5312V12.5M10.1333 3.125C11.4281 3.125 12.5 4.17396 12.5 5.46875V7.8125C12.5 8.4341 12.7469 9.03024 13.1865 9.46978C13.626 9.90932 14.2221 10.1562 14.8437 10.1562H17.1875C17.8091 10.1562 18.4052 10.4032 18.8448 10.8427C19.2843 11.2823 19.5312 11.8784 19.5312 12.5M10.1333 3.125C13.9771 3.125 19.5312 8.70833 19.5312 12.5" stroke="#E31E24" stroke-width="1.5" stroke-linecap="round" stroke-linejoin="round"/>
</svg>
