<svg width="90" height="90" viewBox="0 0 90 90" fill="none" xmlns="http://www.w3.org/2000/svg">
<path d="M39.375 60.2269L25.3125 46.1616L29.2866 42.1875L39.375 52.2731L60.7078 30.9375L64.6875 34.9172L39.375 60.2269Z" fill="#E31E24"/>
<path d="M45 5.625C37.2124 5.625 29.5996 7.9343 23.1244 12.2609C16.6493 16.5875 11.6025 22.737 8.62226 29.9318C5.64206 37.1267 4.8623 45.0437 6.3816 52.6817C7.90089 60.3197 11.651 67.3356 17.1577 72.8423C22.6644 78.349 29.6803 82.0991 37.3183 83.6184C44.9563 85.1377 52.8733 84.358 60.0682 81.3778C67.263 78.3976 73.4126 73.3508 77.7391 66.8756C82.0657 60.4004 84.375 52.7876 84.375 45C84.375 34.5571 80.2266 24.5419 72.8423 17.1577C65.4581 9.77343 55.4429 5.625 45 5.625ZM45 78.75C38.3249 78.75 31.7997 76.7706 26.2495 73.0621C20.6994 69.3536 16.3735 64.0826 13.8191 57.9156C11.2646 51.7486 10.5963 44.9626 11.8985 38.4157C13.2008 31.8688 16.4151 25.8552 21.1352 21.1351C25.8552 16.4151 31.8689 13.2007 38.4157 11.8985C44.9626 10.5962 51.7486 11.2646 57.9156 13.8191C64.0826 16.3735 69.3536 20.6993 73.0621 26.2495C76.7706 31.7997 78.75 38.3249 78.75 45C78.75 53.9511 75.1942 62.5355 68.8649 68.8649C62.5355 75.1942 53.9511 78.75 45 78.75Z" fill="#E31E24"/>
</svg>
