<svg width="25" height="25" viewBox="0 0 25 25" fill="none" xmlns="http://www.w3.org/2000/svg">
<g clip-path="url(#clip0_58_5795)">
<path d="M22.2248 20.1389H2.78038C2.5962 20.1389 2.41957 20.0657 2.28934 19.9355C2.1591 19.8053 2.08594 19.6286 2.08594 19.4444C2.08594 19.2603 2.1591 19.0836 2.28934 18.9534C2.41957 18.8232 2.5962 18.75 2.78038 18.75H22.2248C22.409 18.75 22.5856 18.8232 22.7159 18.9534C22.8461 19.0836 22.9193 19.2603 22.9193 19.4444C22.9193 19.6286 22.8461 19.8053 22.7159 19.9355C22.5856 20.0657 22.409 20.1389 22.2248 20.1389Z" fill="black"/>
<path d="M22.2248 13.1946H2.78038C2.5962 13.1946 2.41957 13.1214 2.28934 12.9912C2.1591 12.8609 2.08594 12.6843 2.08594 12.5001C2.08594 12.3159 2.1591 12.1393 2.28934 12.0091C2.41957 11.8788 2.5962 11.8057 2.78038 11.8057H22.2248C22.409 11.8057 22.5856 11.8788 22.7159 12.0091C22.8461 12.1393 22.9193 12.3159 22.9193 12.5001C22.9193 12.6843 22.8461 12.8609 22.7159 12.9912C22.5856 13.1214 22.409 13.1946 22.2248 13.1946Z" fill="black"/>
<path d="M22.2248 6.25022H2.78038C2.5962 6.25022 2.41957 6.17705 2.28934 6.04682C2.1591 5.91659 2.08594 5.73995 2.08594 5.55577C2.08594 5.37159 2.1591 5.19496 2.28934 5.06473C2.41957 4.93449 2.5962 4.86133 2.78038 4.86133H22.2248C22.409 4.86133 22.5856 4.93449 22.7159 5.06473C22.8461 5.19496 22.9193 5.37159 22.9193 5.55577C22.9193 5.73995 22.8461 5.91659 22.7159 6.04682C22.5856 6.17705 22.409 6.25022 22.2248 6.25022Z" fill="black"/>
</g>
<defs>
<clipPath id="clip0_58_5795">
<rect width="25" height="25" fill="white"/>
</clipPath>
</defs>
</svg>
