<svg width="45" height="45" viewBox="0 0 45 45" fill="none" xmlns="http://www.w3.org/2000/svg">
<path d="M0 22.5C0 34.9264 10.0736 45 22.5 45C34.9264 45 45 34.9264 45 22.5C45 10.0736 34.9264 0 22.5 0C10.0736 0 0 10.0736 0 22.5Z" fill="#F00073"/>
<path d="M22.5 12.9375C25.5938 12.9375 26.0156 12.9375 27.2812 12.9375C28.4062 12.9375 28.9688 13.2188 29.3906 13.3594C29.9531 13.6406 30.375 13.7813 30.7969 14.2031C31.2188 14.625 31.5 15.0469 31.6406 15.6094C31.7812 16.0313 31.9219 16.5938 32.0625 17.7188C32.0625 18.9844 32.0625 19.2656 32.0625 22.5C32.0625 25.7344 32.0625 26.0156 32.0625 27.2812C32.0625 28.4062 31.7812 28.9688 31.6406 29.3906C31.3594 29.9531 31.2188 30.375 30.7969 30.7969C30.375 31.2188 29.9531 31.5 29.3906 31.6406C28.9688 31.7812 28.4062 31.9219 27.2812 32.0625C26.0156 32.0625 25.7344 32.0625 22.5 32.0625C19.2656 32.0625 18.9844 32.0625 17.7188 32.0625C16.5938 32.0625 16.0313 31.7812 15.6094 31.6406C15.0469 31.3594 14.625 31.2188 14.2031 30.7969C13.7813 30.375 13.5 29.9531 13.3594 29.3906C13.2188 28.9688 13.0781 28.4062 12.9375 27.2812C12.9375 26.0156 12.9375 25.7344 12.9375 22.5C12.9375 19.2656 12.9375 18.9844 12.9375 17.7188C12.9375 16.5938 13.2188 16.0313 13.3594 15.6094C13.6406 15.0469 13.7813 14.625 14.2031 14.2031C14.625 13.7813 15.0469 13.5 15.6094 13.3594C16.0313 13.2188 16.5938 13.0781 17.7188 12.9375C18.9844 12.9375 19.4063 12.9375 22.5 12.9375ZM22.5 10.8281C19.2656 10.8281 18.9844 10.8281 17.7188 10.8281C16.4531 10.8281 15.6094 11.1094 14.9063 11.3906C14.2031 11.6719 13.5 12.0938 12.7969 12.7969C12.0938 13.5 11.8125 14.0625 11.3906 14.9063C11.1094 15.6094 10.9688 16.4531 10.8281 17.7188C10.8281 18.9844 10.8281 19.4063 10.8281 22.5C10.8281 25.7344 10.8281 26.0156 10.8281 27.2812C10.8281 28.5469 11.1094 29.3906 11.3906 30.0938C11.6719 30.7969 12.0938 31.5 12.7969 32.2031C13.5 32.9062 14.0625 33.1875 14.9063 33.6094C15.6094 33.8906 16.4531 34.0312 17.7188 34.1719C18.9844 34.1719 19.4063 34.1719 22.5 34.1719C25.5938 34.1719 26.0156 34.1719 27.2812 34.1719C28.5469 34.1719 29.3906 33.8906 30.0938 33.6094C30.7969 33.3281 31.5 32.9062 32.2031 32.2031C32.9062 31.5 33.1875 30.9375 33.6094 30.0938C33.8906 29.3906 34.0312 28.5469 34.1719 27.2812C34.1719 26.0156 34.1719 25.5938 34.1719 22.5C34.1719 19.4063 34.1719 18.9844 34.1719 17.7188C34.1719 16.4531 33.8906 15.6094 33.6094 14.9063C33.3281 14.2031 32.9062 13.5 32.2031 12.7969C31.5 12.0938 30.9375 11.8125 30.0938 11.3906C29.3906 11.1094 28.5469 10.9688 27.2812 10.8281C26.0156 10.8281 25.7344 10.8281 22.5 10.8281Z" fill="white"/>
<path d="M22.5 16.4531C19.125 16.4531 16.4531 19.125 16.4531 22.5C16.4531 25.875 19.125 28.5469 22.5 28.5469C25.875 28.5469 28.5469 25.875 28.5469 22.5C28.5469 19.125 25.875 16.4531 22.5 16.4531ZM22.5 26.4375C20.3906 26.4375 18.5625 24.75 18.5625 22.5C18.5625 20.3906 20.25 18.5625 22.5 18.5625C24.6094 18.5625 26.4375 20.25 26.4375 22.5C26.4375 24.6094 24.6094 26.4375 22.5 26.4375Z" fill="white"/>
<path d="M28.6875 17.7188C29.4641 17.7188 30.0938 17.0892 30.0938 16.3125C30.0938 15.5359 29.4641 14.9063 28.6875 14.9063C27.9108 14.9063 27.2812 15.5359 27.2812 16.3125C27.2812 17.0892 27.9108 17.7188 28.6875 17.7188Z" fill="white"/>
</svg>
