<svg width="30" height="30" viewBox="0 0 30 30" fill="none" xmlns="http://www.w3.org/2000/svg">
<path d="M25.9676 18.7853L20.4317 16.3044C20.1808 16.197 19.9072 16.1537 19.6354 16.1787C19.3637 16.2037 19.1025 16.296 18.8754 16.4474C18.8524 16.4622 18.8305 16.4787 18.8098 16.4966L15.9164 18.9576C15.8864 18.9739 15.853 18.9831 15.8188 18.9843C15.7846 18.9855 15.7507 18.9788 15.7195 18.9646C13.8598 18.0669 11.9332 16.1521 11.032 14.3181C11.017 14.2875 11.0092 14.2538 11.0092 14.2197C11.0092 14.1855 11.017 14.1519 11.032 14.1212L13.5012 11.1915C13.5189 11.1699 13.5354 11.1472 13.5504 11.1236C13.6997 10.8956 13.7899 10.6341 13.8128 10.3626C13.8357 10.0911 13.7906 9.81821 13.6817 9.56849L11.2184 4.04193C11.0785 3.71569 10.8366 3.44362 10.5289 3.26655C10.2213 3.08948 9.86448 3.01697 9.51212 3.05989C7.98075 3.26122 6.57507 4.01326 5.55777 5.17548C4.54048 6.3377 3.98118 7.83058 3.98439 9.37513C3.98439 18.5509 11.4492 26.0158 20.625 26.0158C22.1695 26.0187 23.6622 25.4593 24.8244 24.4421C25.9866 23.4248 26.7387 22.0193 26.9402 20.488C26.9831 20.1373 26.9116 19.7821 26.7363 19.4753C26.5611 19.1685 26.2915 18.9265 25.9676 18.7853ZM20.625 24.6095C12.225 24.6095 5.39064 17.7751 5.39064 9.37513C5.38672 8.1727 5.82072 7.00998 6.61155 6.1042C7.40238 5.19843 8.49594 4.61156 9.6879 4.45325H9.71486C9.76208 4.45413 9.80794 4.46926 9.84642 4.49666C9.88489 4.52405 9.9142 4.56243 9.93048 4.60677L12.4031 10.1275C12.4172 10.1582 12.4245 10.1915 12.4245 10.2253C12.4245 10.2591 12.4172 10.2925 12.4031 10.3232L9.92931 13.2599C9.91094 13.2809 9.8941 13.3033 9.87892 13.3267C9.72412 13.563 9.63297 13.8353 9.61428 14.1172C9.5956 14.3991 9.65002 14.681 9.77228 14.9357C10.8117 17.0638 12.9563 19.1919 15.1078 20.2314C15.364 20.353 15.6473 20.4061 15.9301 20.3855C16.2129 20.365 16.4856 20.2715 16.7215 20.1142C16.7438 20.099 16.766 20.0826 16.7871 20.065L19.6793 17.604C19.7079 17.5887 19.7394 17.5797 19.7718 17.5777C19.8041 17.5756 19.8366 17.5806 19.8668 17.5923L25.4039 20.0732C25.4492 20.0924 25.4872 20.1254 25.5126 20.1675C25.5381 20.2096 25.5496 20.2585 25.5457 20.3075C25.3882 21.5001 24.8019 22.5944 23.8963 23.3861C22.9908 24.1779 21.8279 24.6127 20.625 24.6095Z" fill="#252324"/>
</svg>
