<svg width="30" height="30" viewBox="0 0 30 30" fill="none" xmlns="http://www.w3.org/2000/svg">
<path d="M27.1898 25.8617L20.1098 18.7817C21.8111 16.7392 22.6596 14.1194 22.4785 11.4672C22.2975 8.81512 21.101 6.33489 19.1378 4.54251C17.1747 2.75012 14.5961 1.78359 11.9385 1.84398C9.28088 1.90436 6.74886 2.98702 4.86916 4.86672C2.98946 6.74641 1.9068 9.27843 1.84642 11.936C1.78603 14.5937 2.75256 17.1722 4.54495 19.1354C6.33733 21.0985 8.81756 22.295 11.4697 22.4761C14.1218 22.6571 16.7416 21.8087 18.7842 20.1073L25.8642 27.1873L27.1898 25.8617ZM3.75228 12.1873C3.75228 10.5186 4.24713 8.88725 5.17425 7.49971C6.10138 6.11217 7.41913 5.03071 8.96088 4.3921C10.5026 3.75349 12.1991 3.5864 13.8358 3.91196C15.4726 4.23752 16.976 5.04112 18.156 6.22112C19.336 7.40113 20.1396 8.90454 20.4652 10.5413C20.7907 12.178 20.6236 13.8745 19.985 15.4162C19.3464 16.958 18.2649 18.2757 16.8774 19.2029C15.4899 20.13 13.8586 20.6248 12.1898 20.6248C9.95277 20.6224 7.8081 19.7326 6.2263 18.1508C4.6445 16.569 3.75476 14.4243 3.75228 12.1873Z" fill="#252324"/>
</svg>
