<svg width="45" height="45" viewBox="0 0 45 45" fill="none" xmlns="http://www.w3.org/2000/svg">
<path d="M0 22.5C0 34.9264 10.0736 45 22.5 45C34.9264 45 45 34.9264 45 22.5C45 10.0736 34.9264 0 22.5 0C10.0736 0 0 10.0736 0 22.5Z" fill="#0088CC"/>
<path d="M11.3905 22.0898C17.4303 19.4584 21.4578 17.7235 23.4729 16.8854C29.2266 14.4922 30.4222 14.0765 31.2014 14.0626C31.3728 14.0598 31.756 14.1022 32.0042 14.3037C32.2138 14.4737 32.2715 14.7035 32.2991 14.8647C32.3267 15.026 32.3611 15.3933 32.3337 15.6803C32.022 18.9564 30.6728 26.9065 29.9865 30.5757C29.696 32.1283 29.1242 32.6489 28.5706 32.6998C27.3674 32.8105 26.4538 31.9047 25.2885 31.1408C23.465 29.9455 22.4349 29.2014 20.6649 28.035C18.6193 26.687 19.9454 25.9462 21.1111 24.7354C21.4162 24.4185 26.7173 19.5967 26.8199 19.1593C26.8327 19.1046 26.8446 18.9007 26.7235 18.793C26.6024 18.6854 26.4236 18.7222 26.2945 18.7515C26.1117 18.793 23.1986 20.7184 17.5555 24.5277C16.7286 25.0954 15.9797 25.3721 15.3087 25.3576C14.5689 25.3416 13.1459 24.9393 12.0881 24.5955C10.7906 24.1737 9.75941 23.9507 9.8492 23.2344C9.89597 22.8614 10.4097 22.4798 11.3905 22.0898Z" fill="white"/>
</svg>
