<svg width="45" height="45" viewBox="0 0 45 45" fill="none" xmlns="http://www.w3.org/2000/svg">
<path d="M0 22.5C0 34.9264 10.0736 45 22.5 45C34.9264 45 45 34.9264 45 22.5C45 10.0736 34.9264 0 22.5 0C10.0736 0 0 10.0736 0 22.5Z" fill="#FF0000"/>
<path d="M33.1875 17.0156C32.9063 16.0313 32.2031 15.3281 31.2188 15.0469C29.5313 14.625 22.3594 14.625 22.3594 14.625C22.3594 14.625 15.3281 14.625 13.5 15.0469C12.5156 15.3281 11.8125 16.0313 11.5312 17.0156C11.25 18.8438 11.25 22.5 11.25 22.5C11.25 22.5 11.25 26.1563 11.6719 27.9844C11.9531 28.9687 12.6562 29.6719 13.6406 29.9531C15.3281 30.375 22.5 30.375 22.5 30.375C22.5 30.375 29.5312 30.375 31.3594 29.9531C32.3437 29.6719 33.0469 28.9687 33.3281 27.9844C33.75 26.1563 33.75 22.5 33.75 22.5C33.75 22.5 33.75 18.8438 33.1875 17.0156ZM20.25 25.875V19.125L26.1563 22.5L20.25 25.875Z" fill="white"/>
</svg>
